<mxfile host="app.diagrams.net" agent="Mozilla/5.0 (Windows NT 10.0; Win64; x64) AppleWebKit/537.36 (KHTML, like Gecko) Chrome/131.0.0.0 Safari/537.36 Edg/131.0.0.0" version="26.0.11">
  <diagram name="Seite-1" id="eZfO74YTUdXSAktTWJJR">
    <mxGraphModel dx="1188" dy="659" grid="0" gridSize="10" guides="1" tooltips="1" connect="1" arrows="1" fold="1" page="1" pageScale="1" pageWidth="1169" pageHeight="827" math="0" shadow="0">
      <root>
        <mxCell id="0" />
        <mxCell id="1" parent="0" />
        <mxCell id="dkiA7TVGlJUXl4R-B8ol-5" value="&lt;b&gt;192.168.&lt;font color=&quot;#f019c2&quot;&gt;7&lt;/font&gt;&lt;font style=&quot;color: rgb(0, 255, 255);&quot;&gt;.1&lt;/font&gt;&lt;/b&gt;" style="shape=mxgraph.cisco.computers_and_peripherals.workstation;sketch=0;html=1;pointerEvents=1;dashed=0;fillColor=#036897;strokeColor=#ffffff;strokeWidth=2;verticalLabelPosition=bottom;verticalAlign=top;align=center;outlineConnect=0;" parent="1" vertex="1">
          <mxGeometry x="783" y="155" width="83" height="62" as="geometry" />
        </mxCell>
        <mxCell id="dkiA7TVGlJUXl4R-B8ol-8" value="&lt;b&gt;EV Pippin&lt;br&gt;Gebäude CineTech Studios&lt;/b&gt;&lt;div&gt;&lt;b&gt;&lt;br&gt;&lt;/b&gt;&lt;/div&gt;" style="shape=mxgraph.cisco.switches.workgroup_switch;sketch=0;html=1;pointerEvents=1;dashed=0;fillColor=#036897;strokeColor=#ffffff;strokeWidth=2;verticalLabelPosition=bottom;verticalAlign=top;align=center;outlineConnect=0;" parent="1" vertex="1">
          <mxGeometry x="510" y="225" width="101" height="50" as="geometry" />
        </mxCell>
        <mxCell id="dkiA7TVGlJUXl4R-B8ol-10" value="&lt;b&gt;192.168.&lt;font color=&quot;#f019c2&quot;&gt;7&lt;/font&gt;&lt;font style=&quot;color: rgb(102, 255, 102);&quot;&gt;.129&lt;/font&gt;&lt;/b&gt;" style="shape=mxgraph.cisco.computers_and_peripherals.workstation;sketch=0;html=1;pointerEvents=1;dashed=0;fillColor=#036897;strokeColor=#ffffff;strokeWidth=2;verticalLabelPosition=bottom;verticalAlign=top;align=center;outlineConnect=0;" parent="1" vertex="1">
          <mxGeometry x="796" y="335" width="83" height="62" as="geometry" />
        </mxCell>
        <mxCell id="dkiA7TVGlJUXl4R-B8ol-19" value="&lt;table style=&quot;border: 1px solid rgb(71, 71, 71); border-collapse: collapse;&quot; border=&quot;1&quot;&gt;&lt;tbody&gt;&lt;tr&gt;&lt;td&gt;VLAN Nr&lt;/td&gt;&lt;td&gt;Beschreibung&lt;/td&gt;&lt;td&gt;Subnetz&lt;/td&gt;&lt;td&gt;Ports&lt;/td&gt;&lt;/tr&gt;&lt;tr&gt;&lt;td&gt;10&lt;/td&gt;&lt;td&gt;Kamera&lt;/td&gt;&lt;td&gt;A&lt;/td&gt;&lt;td&gt;Gig 1/0/1, Gig 1/0/23&lt;/td&gt;&lt;/tr&gt;&lt;tr&gt;&lt;td&gt;20&lt;/td&gt;&lt;td&gt;Ton&lt;/td&gt;&lt;td&gt;E&lt;/td&gt;&lt;td&gt;Gig 1/0/2, Gig 1/0/24&lt;/td&gt;&lt;/tr&gt;&lt;/tbody&gt;&lt;/table&gt;" style="text;html=1;strokeColor=none;fillColor=none;align=center;verticalAlign=middle;whiteSpace=wrap;rounded=0;" parent="1" vertex="1">
          <mxGeometry x="465" y="106" width="239" height="67" as="geometry" />
        </mxCell>
        <mxCell id="dkiA7TVGlJUXl4R-B8ol-23" value="&lt;b&gt;GV Sauron&lt;br&gt;Gebäude CineTech Studios&lt;/b&gt;&lt;div&gt;&lt;b&gt;&lt;br&gt;&lt;/b&gt;&lt;/div&gt;" style="shape=mxgraph.cisco.routers.router;sketch=0;html=1;pointerEvents=1;dashed=0;fillColor=#036897;strokeColor=#ffffff;strokeWidth=2;verticalLabelPosition=bottom;verticalAlign=top;align=center;outlineConnect=0;" parent="1" vertex="1">
          <mxGeometry x="270" y="223.5" width="78" height="53" as="geometry" />
        </mxCell>
        <mxCell id="3-mFuuegTDrVe2K--_-_-2" value="" style="endArrow=none;html=1;rounded=0;" edge="1" parent="1" source="dkiA7TVGlJUXl4R-B8ol-8" target="dkiA7TVGlJUXl4R-B8ol-5">
          <mxGeometry width="50" height="50" relative="1" as="geometry">
            <mxPoint x="573" y="267" as="sourcePoint" />
            <mxPoint x="623" y="217" as="targetPoint" />
          </mxGeometry>
        </mxCell>
        <mxCell id="3-mFuuegTDrVe2K--_-_-3" value="" style="endArrow=none;html=1;rounded=0;exitX=0.87;exitY=0.74;exitDx=0;exitDy=0;exitPerimeter=0;" edge="1" parent="1" source="dkiA7TVGlJUXl4R-B8ol-8" target="dkiA7TVGlJUXl4R-B8ol-10">
          <mxGeometry width="50" height="50" relative="1" as="geometry">
            <mxPoint x="621" y="248" as="sourcePoint" />
            <mxPoint x="793" y="206" as="targetPoint" />
          </mxGeometry>
        </mxCell>
        <mxCell id="3-mFuuegTDrVe2K--_-_-4" value="" style="endArrow=none;html=1;rounded=0;entryX=0.16;entryY=0.23;entryDx=0;entryDy=0;entryPerimeter=0;exitX=0.88;exitY=0.1;exitDx=0;exitDy=0;exitPerimeter=0;" edge="1" parent="1" source="dkiA7TVGlJUXl4R-B8ol-23" target="dkiA7TVGlJUXl4R-B8ol-8">
          <mxGeometry width="50" height="50" relative="1" as="geometry">
            <mxPoint x="378" y="212" as="sourcePoint" />
            <mxPoint x="806" y="358" as="targetPoint" />
          </mxGeometry>
        </mxCell>
        <mxCell id="3-mFuuegTDrVe2K--_-_-5" value="" style="endArrow=none;html=1;rounded=0;exitX=0.955;exitY=0.676;exitDx=0;exitDy=0;exitPerimeter=0;spacing=2;" edge="1" parent="1" source="dkiA7TVGlJUXl4R-B8ol-23" target="dkiA7TVGlJUXl4R-B8ol-8">
          <mxGeometry width="50" height="50" relative="1" as="geometry">
            <mxPoint x="358" y="260" as="sourcePoint" />
            <mxPoint x="475" y="280" as="targetPoint" />
          </mxGeometry>
        </mxCell>
        <mxCell id="3-mFuuegTDrVe2K--_-_-7" value="Gig 1/0/1" style="text;html=1;align=center;verticalAlign=middle;resizable=0;points=[];autosize=1;strokeColor=none;fillColor=none;" vertex="1" parent="1">
          <mxGeometry x="600" y="208" width="67" height="26" as="geometry" />
        </mxCell>
        <mxCell id="3-mFuuegTDrVe2K--_-_-8" value="Gig 1/0/2" style="text;html=1;align=center;verticalAlign=middle;resizable=0;points=[];autosize=1;strokeColor=none;fillColor=none;" vertex="1" parent="1">
          <mxGeometry x="608" y="249" width="67" height="26" as="geometry" />
        </mxCell>
        <mxCell id="3-mFuuegTDrVe2K--_-_-9" value="Gig 1/0/24" style="text;html=1;align=center;verticalAlign=middle;resizable=0;points=[];autosize=1;strokeColor=none;fillColor=none;" vertex="1" parent="1">
          <mxGeometry x="437" y="256" width="73" height="26" as="geometry" />
        </mxCell>
        <mxCell id="3-mFuuegTDrVe2K--_-_-10" value="Gig 1/0/23" style="text;html=1;align=center;verticalAlign=middle;resizable=0;points=[];autosize=1;strokeColor=none;fillColor=none;" vertex="1" parent="1">
          <mxGeometry x="457" y="213" width="73" height="26" as="geometry" />
        </mxCell>
        <mxCell id="3-mFuuegTDrVe2K--_-_-13" value="&lt;b style=&quot;forced-color-adjust: none; color: rgb(0, 0, 0); font-family: Helvetica; font-size: 12px; font-style: normal; font-variant-ligatures: normal; font-variant-caps: normal; letter-spacing: normal; orphans: 2; text-align: center; text-indent: 0px; text-transform: none; widows: 2; word-spacing: 0px; -webkit-text-stroke-width: 0px; white-space: nowrap; background-color: rgb(251, 251, 251); text-decoration-thickness: initial; text-decoration-style: initial; text-decoration-color: initial;&quot;&gt;.&lt;font color=&quot;#f019c2&quot; style=&quot;forced-color-adjust: none;&quot;&gt;7&lt;/font&gt;&lt;font style=&quot;forced-color-adjust: none; color: rgb(102, 255, 102);&quot;&gt;.158&lt;/font&gt;&lt;/b&gt;" style="text;whiteSpace=wrap;html=1;" vertex="1" parent="1">
          <mxGeometry x="348" y="256" width="42.17" height="30.5" as="geometry" />
        </mxCell>
        <mxCell id="3-mFuuegTDrVe2K--_-_-15" value="&lt;b style=&quot;forced-color-adjust: none; color: rgb(0, 0, 0); font-family: Helvetica; font-size: 12px; font-style: normal; font-variant-ligatures: normal; font-variant-caps: normal; letter-spacing: normal; orphans: 2; text-align: center; text-indent: 0px; text-transform: none; widows: 2; word-spacing: 0px; -webkit-text-stroke-width: 0px; white-space: nowrap; background-color: rgb(251, 251, 251); text-decoration-thickness: initial; text-decoration-style: initial; text-decoration-color: initial;&quot;&gt;.&lt;font color=&quot;#f019c2&quot; style=&quot;forced-color-adjust: none;&quot;&gt;7&lt;/font&gt;&lt;font style=&quot;forced-color-adjust: none; color: rgb(0, 255, 255);&quot;&gt;.30&lt;/font&gt;&lt;/b&gt;" style="text;whiteSpace=wrap;html=1;" vertex="1" parent="1">
          <mxGeometry x="348" y="208" width="40" height="27" as="geometry" />
        </mxCell>
        <mxCell id="3-mFuuegTDrVe2K--_-_-16" value="Gig 0/0/0" style="text;html=1;align=center;verticalAlign=middle;resizable=0;points=[];autosize=1;strokeColor=none;fillColor=none;" vertex="1" parent="1">
          <mxGeometry x="314" y="195" width="67" height="26" as="geometry" />
        </mxCell>
        <mxCell id="3-mFuuegTDrVe2K--_-_-17" value="Gig 0/0/1" style="text;html=1;align=center;verticalAlign=middle;resizable=0;points=[];autosize=1;strokeColor=none;fillColor=none;" vertex="1" parent="1">
          <mxGeometry x="329" y="268" width="67" height="26" as="geometry" />
        </mxCell>
        <mxCell id="3-mFuuegTDrVe2K--_-_-19" value="" style="shape=table;startSize=0;container=1;collapsible=0;childLayout=tableLayout;" vertex="1" parent="1">
          <mxGeometry x="165" y="118" width="223" height="77" as="geometry" />
        </mxCell>
        <mxCell id="3-mFuuegTDrVe2K--_-_-20" value="" style="shape=tableRow;horizontal=0;startSize=0;swimlaneHead=0;swimlaneBody=0;strokeColor=inherit;top=0;left=0;bottom=0;right=0;collapsible=0;dropTarget=0;fillColor=none;points=[[0,0.5],[1,0.5]];portConstraint=eastwest;" vertex="1" parent="3-mFuuegTDrVe2K--_-_-19">
          <mxGeometry width="223" height="27" as="geometry" />
        </mxCell>
        <mxCell id="3-mFuuegTDrVe2K--_-_-21" value="Zielnetz inkl. SNM&lt;span style=&quot;white-space: pre;&quot;&gt;&#x9;&lt;/span&gt;" style="shape=partialRectangle;html=1;whiteSpace=wrap;connectable=0;strokeColor=inherit;overflow=hidden;fillColor=none;top=0;left=0;bottom=0;right=0;pointerEvents=1;" vertex="1" parent="3-mFuuegTDrVe2K--_-_-20">
          <mxGeometry width="112" height="27" as="geometry">
            <mxRectangle width="112" height="27" as="alternateBounds" />
          </mxGeometry>
        </mxCell>
        <mxCell id="3-mFuuegTDrVe2K--_-_-22" value="Next Hop" style="shape=partialRectangle;html=1;whiteSpace=wrap;connectable=0;strokeColor=inherit;overflow=hidden;fillColor=none;top=0;left=0;bottom=0;right=0;pointerEvents=1;" vertex="1" parent="3-mFuuegTDrVe2K--_-_-20">
          <mxGeometry x="112" width="111" height="27" as="geometry">
            <mxRectangle width="111" height="27" as="alternateBounds" />
          </mxGeometry>
        </mxCell>
        <mxCell id="3-mFuuegTDrVe2K--_-_-23" value="" style="shape=tableRow;horizontal=0;startSize=0;swimlaneHead=0;swimlaneBody=0;strokeColor=inherit;top=0;left=0;bottom=0;right=0;collapsible=0;dropTarget=0;fillColor=none;points=[[0,0.5],[1,0.5]];portConstraint=eastwest;" vertex="1" parent="3-mFuuegTDrVe2K--_-_-19">
          <mxGeometry y="27" width="223" height="25" as="geometry" />
        </mxCell>
        <mxCell id="3-mFuuegTDrVe2K--_-_-24" value="192.168.7.0 /27" style="shape=partialRectangle;html=1;whiteSpace=wrap;connectable=0;strokeColor=inherit;overflow=hidden;fillColor=none;top=0;left=0;bottom=0;right=0;pointerEvents=1;" vertex="1" parent="3-mFuuegTDrVe2K--_-_-23">
          <mxGeometry width="112" height="25" as="geometry">
            <mxRectangle width="112" height="25" as="alternateBounds" />
          </mxGeometry>
        </mxCell>
        <mxCell id="3-mFuuegTDrVe2K--_-_-25" value="directly connected" style="shape=partialRectangle;html=1;whiteSpace=wrap;connectable=0;strokeColor=inherit;overflow=hidden;fillColor=none;top=0;left=0;bottom=0;right=0;pointerEvents=1;" vertex="1" parent="3-mFuuegTDrVe2K--_-_-23">
          <mxGeometry x="112" width="111" height="25" as="geometry">
            <mxRectangle width="111" height="25" as="alternateBounds" />
          </mxGeometry>
        </mxCell>
        <mxCell id="3-mFuuegTDrVe2K--_-_-26" style="shape=tableRow;horizontal=0;startSize=0;swimlaneHead=0;swimlaneBody=0;strokeColor=inherit;top=0;left=0;bottom=0;right=0;collapsible=0;dropTarget=0;fillColor=none;points=[[0,0.5],[1,0.5]];portConstraint=eastwest;" vertex="1" parent="3-mFuuegTDrVe2K--_-_-19">
          <mxGeometry y="52" width="223" height="25" as="geometry" />
        </mxCell>
        <mxCell id="3-mFuuegTDrVe2K--_-_-27" value="192.168.7.128 /27" style="shape=partialRectangle;html=1;whiteSpace=wrap;connectable=0;strokeColor=inherit;overflow=hidden;fillColor=none;top=0;left=0;bottom=0;right=0;pointerEvents=1;" vertex="1" parent="3-mFuuegTDrVe2K--_-_-26">
          <mxGeometry width="112" height="25" as="geometry">
            <mxRectangle width="112" height="25" as="alternateBounds" />
          </mxGeometry>
        </mxCell>
        <mxCell id="3-mFuuegTDrVe2K--_-_-28" value="directly connected" style="shape=partialRectangle;html=1;whiteSpace=wrap;connectable=0;strokeColor=inherit;overflow=hidden;fillColor=none;top=0;left=0;bottom=0;right=0;pointerEvents=1;" vertex="1" parent="3-mFuuegTDrVe2K--_-_-26">
          <mxGeometry x="112" width="111" height="25" as="geometry">
            <mxRectangle width="111" height="25" as="alternateBounds" />
          </mxGeometry>
        </mxCell>
      </root>
    </mxGraphModel>
  </diagram>
</mxfile>
